<?xml version="1.0" encoding="UTF-8" standalone="no"?>
<!-- Created with Inkscape (http://www.inkscape.org/) -->

<svg
   xmlns:dc="http://purl.org/dc/elements/1.1/"
   xmlns:cc="http://creativecommons.org/ns#"
   xmlns:rdf="http://www.w3.org/1999/02/22-rdf-syntax-ns#"
   xmlns:svg="http://www.w3.org/2000/svg"
   xmlns="http://www.w3.org/2000/svg"
   xmlns:xlink="http://www.w3.org/1999/xlink"
   xmlns:sodipodi="http://sodipodi.sourceforge.net/DTD/sodipodi-0.dtd"
   xmlns:inkscape="http://www.inkscape.org/namespaces/inkscape"
   width="32"
   height="32"
   viewBox="0 0 8.4666664 8.466667"
   version="1.1"
   id="svg8"
   inkscape:version="0.92.4 (5da689c313, 2019-01-14)"
   sodipodi:docname="save_icon.svg">
  <defs
     id="defs2">
    <linearGradient
       inkscape:collect="always"
       id="linearGradient2872">
      <stop
         style="stop-color:#6525a9;stop-opacity:1;"
         offset="0"
         id="stop2868" />
      <stop
         style="stop-color:#b88de6;stop-opacity:1"
         offset="1"
         id="stop2870" />
    </linearGradient>
    <linearGradient
       inkscape:collect="always"
       xlink:href="#linearGradient2872"
       id="linearGradient2874"
       x1="7.7916398"
       y1="296.43488"
       x2="0.97642446"
       y2="288.75116"
       gradientUnits="userSpaceOnUse" />
  </defs>
  <sodipodi:namedview
     id="base"
     pagecolor="#ffffff"
     bordercolor="#666666"
     borderopacity="1.0"
     inkscape:pageopacity="0.0"
     inkscape:pageshadow="2"
     inkscape:zoom="11.2"
     inkscape:cx="16.899413"
     inkscape:cy="14.74221"
     inkscape:document-units="px"
     inkscape:current-layer="layer1"
     showgrid="false"
     units="px"
     inkscape:pagecheckerboard="true"
     inkscape:window-width="1366"
     inkscape:window-height="705"
     inkscape:window-x="-8"
     inkscape:window-y="-8"
     inkscape:window-maximized="1" />
  <metadata
     id="metadata5">
    <rdf:RDF>
      <cc:Work
         rdf:about="">
        <dc:format>image/svg+xml</dc:format>
        <dc:type
           rdf:resource="http://purl.org/dc/dcmitype/StillImage" />
        <dc:title></dc:title>
      </cc:Work>
    </rdf:RDF>
  </metadata>
  <g
     inkscape:label="Layer 1"
     inkscape:groupmode="layer"
     id="layer1"
     transform="translate(0,-288.53332)">
    <path
       style="opacity:1;fill:url(#linearGradient2874);fill-opacity:1;fill-rule:nonzero;stroke:#1c0831;stroke-width:0.26458333;stroke-linecap:square;stroke-linejoin:miter;stroke-miterlimit:4;stroke-dasharray:none;stroke-dashoffset:0;stroke-opacity:1;paint-order:normal"
       d="m 1.2648049,289.13261 c -0.39755214,0 -0.71747867,0.31993 -0.71747867,0.71748 v 5.88509 c 0,0.39755 0.31992653,0.71748 0.71747867,0.71748 h 5.8850849 c 0.3975523,0 0.7174789,-0.31993 0.7174789,-0.71748 v -5.88509 c 0,-0.39755 -0.3199266,-0.71748 -0.7174789,-0.71748 H 5.5883837 v 2.67184 c 0,0.39488 -0.3620421,0.71198 -0.8110149,0.71198 H 2.3410227 c -0.448973,0 -0.8099144,-0.3171 -0.8099144,-0.71198 v -2.67184 z m 1.3777349,0.64045 c -0.4186064,0 -0.7559935,0.33739 -0.7559935,0.756 v 0.23549 c 0,0.4186 0.3373871,0.75489 0.7559935,0.75489 h 1.8861324 c 0.4186064,0 0.7559936,-0.33629 0.7559936,-0.75489 v -0.23549 c 0,-0.41861 -0.3373872,-0.756 -0.7559936,-0.756 z m -0.7460897,3.8449 h 4.6063888 c 0.083607,0 0.1518588,0.0683 0.1518588,0.15186 v 0.24869 c 0,0.0836 -0.068251,0.15076 -0.1518588,0.15076 H 1.8964501 c -0.083607,0 -0.1507585,-0.0671 -0.1507585,-0.15076 v -0.24869 c 0,-0.0836 0.067151,-0.15186 0.1507585,-0.15186 z m 0,1.20827 h 4.6063888 c 0.083607,0 0.1518588,0.0671 0.1518588,0.15075 v 0.2487 c 0,0.0836 -0.068251,0.15186 -0.1518588,0.15186 H 1.8964501 c -0.083607,0 -0.1507585,-0.0683 -0.1507585,-0.15186 v -0.2487 c 0,-0.0836 0.067151,-0.15075 0.1507585,-0.15075 z"
       id="rect812"
       inkscape:connector-curvature="0" />
  </g>
</svg>
