<?xml version="1.0" encoding="UTF-8" standalone="no"?>
<!-- Created with Inkscape (http://www.inkscape.org/) -->

<svg
   xmlns:dc="http://purl.org/dc/elements/1.1/"
   xmlns:cc="http://creativecommons.org/ns#"
   xmlns:rdf="http://www.w3.org/1999/02/22-rdf-syntax-ns#"
   xmlns:svg="http://www.w3.org/2000/svg"
   xmlns="http://www.w3.org/2000/svg"
   xmlns:xlink="http://www.w3.org/1999/xlink"
   xmlns:sodipodi="http://sodipodi.sourceforge.net/DTD/sodipodi-0.dtd"
   xmlns:inkscape="http://www.inkscape.org/namespaces/inkscape"
   width="50"
   height="50"
   viewBox="0 0 13.229166 13.229167"
   version="1.1"
   id="svg8"
   inkscape:version="0.92.4 (5da689c313, 2019-01-14)"
   sodipodi:docname="open_icon.svg">
  <defs
     id="defs2">
    <linearGradient
       inkscape:collect="always"
       id="linearGradient4012">
      <stop
         style="stop-color:#592194;stop-opacity:1"
         offset="0"
         id="stop4008" />
      <stop
         style="stop-color:#ccb9e1;stop-opacity:1"
         offset="1"
         id="stop4010" />
    </linearGradient>
    <linearGradient
       inkscape:collect="always"
       xlink:href="#linearGradient4012"
       id="linearGradient4014"
       x1="21.583147"
       y1="30.422991"
       x2="2.2918525"
       y2="2.5429688"
       gradientUnits="userSpaceOnUse"
       gradientTransform="matrix(0.41767792,0,0,0.41767792,-0.07834138,283.97337)" />
  </defs>
  <sodipodi:namedview
     id="base"
     pagecolor="#ffffff"
     bordercolor="#666666"
     borderopacity="1.0"
     inkscape:pageopacity="0.0"
     inkscape:pageshadow="2"
     inkscape:zoom="7.919596"
     inkscape:cx="20.24145"
     inkscape:cy="20.764732"
     inkscape:document-units="px"
     inkscape:current-layer="layer1"
     showgrid="false"
     units="px"
     inkscape:pagecheckerboard="true"
     inkscape:window-width="1366"
     inkscape:window-height="705"
     inkscape:window-x="-8"
     inkscape:window-y="-8"
     inkscape:window-maximized="1" />
  <metadata
     id="metadata5">
    <rdf:RDF>
      <cc:Work
         rdf:about="">
        <dc:format>image/svg+xml</dc:format>
        <dc:type
           rdf:resource="http://purl.org/dc/dcmitype/StillImage" />
        <dc:title></dc:title>
      </cc:Work>
    </rdf:RDF>
  </metadata>
  <g
     inkscape:label="Layer 1"
     inkscape:groupmode="layer"
     id="layer1"
     transform="translate(0,-283.77082)">
    <path
       style="opacity:1;fill:url(#linearGradient4014);fill-opacity:1;fill-rule:nonzero;stroke:#1c0831;stroke-width:0.41767788;stroke-linecap:square;stroke-linejoin:miter;stroke-miterlimit:4;stroke-dasharray:none;stroke-dashoffset:0;stroke-opacity:1;paint-order:normal"
       d="m 6.5474008,284.77447 c -0.196271,0 -0.3540472,0.25011 -0.3540472,0.56044 v 7.50841 l -1.4308731,-1.62095 c -0.2053981,-0.23263 -0.4830549,-0.3213 -0.6224382,-0.19823 -0.139383,0.12313 -0.086295,0.4102 0.1191038,0.64283 l 1.9741805,2.23523 c 0.01555,0.0177 0.033485,0.0281 0.049763,0.0441 0.00733,0.0631 0.026005,0.11987 0.069341,0.15744 0.062413,0.0542 0.1539511,0.0595 0.252891,0.0343 0.097613,0.0226 0.1879263,0.0161 0.2496277,-0.0384 0.043203,-0.0382 0.061933,-0.0952 0.069341,-0.15826 0.01649,-0.0164 0.034839,-0.0277 0.050578,-0.0457 l 1.9733648,-2.26705 c 0.2053981,-0.23591 0.2584858,-0.5228 0.1191034,-0.64364 -0.1393829,-0.12077 -0.4170397,-0.028 -0.6224379,0.20802 l -1.5426345,1.77268 v -7.63077 c 0,-0.31033 -0.1585919,-0.56044 -0.3548633,-0.56044 z m -6.01227774,8.0819 c -0.10579285,0 -0.19089188,0.0851 -0.19089184,0.19089 v 2.7557 c 0,0.0338 0.0107773,0.0637 0.0261049,0.0914 v 0.11992 c 0,0.10576 0.0850991,0.19089 0.19089184,0.19089 H 12.599652 c 0.105793,0 0.190892,-0.0851 0.190892,-0.19089 v -0.11992 c 0.01533,-0.0275 0.0261,-0.0574 0.0261,-0.0914 v -2.7557 c 0,-0.10576 -0.0851,-0.19089 -0.190892,-0.19089 h -0.673016 c -0.105793,0 -0.190892,0.0851 -0.190892,0.19089 v 1.78656 H 1.3990311 v -1.78656 c 0,-0.10576 -0.085915,-0.19089 -0.1917076,-0.19089 z"
       id="rect3993"
       inkscape:connector-curvature="0" />
  </g>
</svg>
