<?xml version="1.0" encoding="UTF-8" standalone="no"?>
<svg
   xmlns:dc="http://purl.org/dc/elements/1.1/"
   xmlns:cc="http://creativecommons.org/ns#"
   xmlns:rdf="http://www.w3.org/1999/02/22-rdf-syntax-ns#"
   xmlns:svg="http://www.w3.org/2000/svg"
   xmlns="http://www.w3.org/2000/svg"
   xmlns:sodipodi="http://sodipodi.sourceforge.net/DTD/sodipodi-0.dtd"
   xmlns:inkscape="http://www.inkscape.org/namespaces/inkscape"
   width="16"
   height="16"
   version="1.1"
   viewBox="0 0 16 16"
   id="svg6"
   sodipodi:docname="custom_icon.svg"
   inkscape:version="0.92.1 r15371">
  <metadata
     id="metadata12">
    <rdf:RDF>
      <cc:Work
         rdf:about="">
        <dc:format>image/svg+xml</dc:format>
        <dc:type
           rdf:resource="http://purl.org/dc/dcmitype/StillImage" />
        <dc:title></dc:title>
      </cc:Work>
    </rdf:RDF>
  </metadata>
  <defs
     id="defs10" />
  <sodipodi:namedview
     pagecolor="#ffffff"
     bordercolor="#666666"
     borderopacity="1"
     objecttolerance="10"
     gridtolerance="10"
     guidetolerance="10"
     inkscape:pageopacity="0"
     inkscape:pageshadow="2"
     inkscape:window-width="1366"
     inkscape:window-height="750"
     id="namedview8"
     showgrid="true"
     inkscape:snap-bbox="true"
     inkscape:bbox-nodes="true"
     inkscape:zoom="29.5"
     inkscape:cx="8.9664143"
     inkscape:cy="7.3483267"
     inkscape:window-x="0"
     inkscape:window-y="18"
     inkscape:window-maximized="1"
     inkscape:current-layer="g4"
     inkscape:object-paths="true"
     inkscape:snap-smooth-nodes="true"
     inkscape:snap-bbox-midpoints="true"
     inkscape:snap-nodes="true"
     inkscape:snap-intersection-paths="true"
     inkscape:snap-midpoints="true"
     inkscape:snap-object-midpoints="true">
    <inkscape:grid
       type="xygrid"
       id="grid14"
       empspacing="4" />
  </sodipodi:namedview>
  <g
     transform="translate(0 -1036.4)"
     id="g4">
    <path
       style="color:#000000;font-style:normal;font-variant:normal;font-weight:normal;font-stretch:normal;font-size:medium;line-height:normal;font-family:sans-serif;font-variant-ligatures:normal;font-variant-position:normal;font-variant-caps:normal;font-variant-numeric:normal;font-variant-alternates:normal;font-feature-settings:normal;text-indent:0;text-align:start;text-decoration:none;text-decoration-line:none;text-decoration-style:solid;text-decoration-color:#000000;letter-spacing:normal;word-spacing:normal;text-transform:none;writing-mode:lr-tb;direction:ltr;text-orientation:mixed;dominant-baseline:auto;baseline-shift:baseline;text-anchor:start;white-space:normal;shape-padding:0;clip-rule:nonzero;display:inline;overflow:visible;visibility:visible;opacity:1;isolation:auto;mix-blend-mode:normal;color-interpolation:sRGB;color-interpolation-filters:linearRGB;solid-color:#000000;solid-opacity:1;vector-effect:none;fill:#ffffff;fill-opacity:1;fill-rule:nonzero;stroke:none;stroke-width:1.07692361px;stroke-linecap:butt;stroke-linejoin:miter;stroke-miterlimit:4;stroke-dasharray:none;stroke-dashoffset:0;stroke-opacity:1;color-rendering:auto;image-rendering:auto;shape-rendering:auto;text-rendering:auto;enable-background:accumulate"
       d="M 3.6914062 1.2695312 A 2.6923089 2.6923089 0 0 0 1 3.9609375 A 2.6923089 2.6923089 0 0 0 3.6914062 6.6542969 A 2.6923089 2.6923089 0 0 0 4.4570312 6.5410156 L 6.2851562 9.9667969 A 2.6923089 2.6923089 0 0 0 5.3085938 12.039062 A 2.6923089 2.6923089 0 0 0 8 14.730469 A 2.6923089 2.6923089 0 0 0 10.691406 12.039062 A 2.6923089 2.6923089 0 0 0 9.7148438 9.9648438 L 11.541016 6.5410156 A 2.6923089 2.6923089 0 0 0 12.308594 6.6542969 A 2.6923089 2.6923089 0 0 0 15 3.9609375 A 2.6923089 2.6923089 0 0 0 12.308594 1.2695312 A 2.6923089 2.6923089 0 0 0 9.671875 3.421875 L 6.328125 3.421875 A 2.6923089 2.6923089 0 0 0 3.6914062 1.2695312 z M 6.328125 4.5 L 9.671875 4.5 A 2.6923089 2.6923089 0 0 0 10.591797 6.0351562 L 8.765625 9.4589844 A 2.6923089 2.6923089 0 0 0 8 9.3457031 A 2.6923089 2.6923089 0 0 0 7.234375 9.4589844 L 5.4082031 6.0332031 A 2.6923089 2.6923089 0 0 0 6.328125 4.5 z "
       transform="translate(0,1036.4)"
       id="path4524" />
  </g>
</svg>
