<?xml version="1.0" encoding="UTF-8" standalone="no"?>
<!-- Created with Inkscape (http://www.inkscape.org/) -->

<svg
   xmlns:dc="http://purl.org/dc/elements/1.1/"
   xmlns:cc="http://creativecommons.org/ns#"
   xmlns:rdf="http://www.w3.org/1999/02/22-rdf-syntax-ns#"
   xmlns:svg="http://www.w3.org/2000/svg"
   xmlns="http://www.w3.org/2000/svg"
   xmlns:sodipodi="http://sodipodi.sourceforge.net/DTD/sodipodi-0.dtd"
   xmlns:inkscape="http://www.inkscape.org/namespaces/inkscape"
   width="32"
   height="32"
   viewBox="0 0 8.4666664 8.466667"
   version="1.1"
   id="svg8"
   inkscape:version="0.92.4 (5da689c313, 2019-01-14)"
   sodipodi:docname="program_icon.svg">
  <defs
     id="defs2" />
  <sodipodi:namedview
     id="base"
     pagecolor="#ffffff"
     bordercolor="#666666"
     borderopacity="1.0"
     inkscape:pageopacity="0.0"
     inkscape:pageshadow="2"
     inkscape:zoom="19.835997"
     inkscape:cx="15.526956"
     inkscape:cy="16.17752"
     inkscape:document-units="px"
     inkscape:current-layer="layer1"
     showgrid="false"
     units="px"
     inkscape:pagecheckerboard="true"
     inkscape:window-width="1366"
     inkscape:window-height="705"
     inkscape:window-x="-8"
     inkscape:window-y="-8"
     inkscape:window-maximized="1" />
  <metadata
     id="metadata5">
    <rdf:RDF>
      <cc:Work
         rdf:about="">
        <dc:format>image/svg+xml</dc:format>
        <dc:type
           rdf:resource="http://purl.org/dc/dcmitype/StillImage" />
        <dc:title></dc:title>
      </cc:Work>
    </rdf:RDF>
  </metadata>
  <g
     inkscape:label="Layer 1"
     inkscape:groupmode="layer"
     id="layer1"
     transform="translate(0,-288.53332)">
    <g
       id="g984"
       inkscape:label="Gear12"
       transform="matrix(0.17531654,0,0,0.17531654,2.962542,292.00063)"
       style="stroke:none;stroke-opacity:1;fill:#828282;fill-opacity:1;stroke-width:1.00058301;stroke-miterlimit:4;stroke-dasharray:none">
      <path
         id="path980"
         style="fill:#828282;stroke:none;stroke-width:1.00058301;stroke-opacity:1;fill-opacity:1;stroke-miterlimit:4;stroke-dasharray:none"
         d="m 8.33259,-1.22361 1.06349,-0.15617 0.6238,0.06064 1.75925,0.79639 v 1.0455 L 10.01988,1.31914 9.39608,1.37978 8.33259,1.22361 7.82804,3.10662 8.82714,3.50312 9.33704,3.86753 10.4624,5.43686 9.93966,6.34228 8.0179,6.15235 7.44736,5.89297 6.60443,5.22597 5.22597,6.60443 5.89297,7.44736 6.15235,8.0179 6.34228,9.93966 5.43686,10.4624 3.86753,9.33704 3.50312,8.82714 3.10662,7.82804 1.22361,8.33259 1.37978,9.39608 1.31914,10.01988 0.52275,11.77913 h -1.0455 l -0.79639,-1.75925 -0.06064,-0.6238 0.15617,-1.06349 -1.88301,-0.50455 -0.3965,0.9991 -0.36441,0.5099 -1.56933,1.12536 -0.90542,-0.52274 0.18993,-1.92176 0.25938,-0.57054 0.667,-0.84293 -1.37846,-1.37846 -0.84293,0.667 -0.57054,0.25938 -1.92176,0.18993 -0.52274,-0.90542 1.12536,-1.56933 0.5099,-0.36441 0.9991,-0.3965 -0.50455,-1.88301 -1.06349,0.15617 -0.6238,-0.06064 -1.75925,-0.79639 v -1.0455 l 1.75925,-0.79639 0.6238,-0.06064 1.06349,0.15617 0.50455,-1.88301 -0.9991,-0.3965 -0.5099,-0.36441 -1.12536,-1.56933 0.52274,-0.90542 1.92176,0.18993 0.57054,0.25938 0.84293,0.667 1.37846,-1.37846 -0.667,-0.84293 -0.25938,-0.57054 -0.18993,-1.92176 0.90542,-0.52274 1.56933,1.12536 0.36441,0.5099 0.3965,0.9991 1.88301,-0.50455 -0.15617,-1.06349 0.06064,-0.6238 0.79639,-1.75925 h 1.0455 l 0.79639,1.75925 0.06064,0.6238 -0.15617,1.06349 1.88301,0.50455 0.3965,-0.9991 0.36441,-0.5099 1.56933,-1.12536 0.90542,0.52274 -0.18993,1.92176 -0.25938,0.57054 -0.667,0.84293 1.37846,1.37846 0.84293,-0.667 0.57054,-0.25938 1.92176,-0.18993 0.52274,0.90542 -1.12536,1.56933 -0.5099,0.36441 -0.9991,0.3965 z"
         inkscape:connector-curvature="0" />
      <path
         style="fill:#828282;fill-opacity:1;stroke:none;stroke-width:1.00058305;stroke-miterlimit:4;stroke-dasharray:none;stroke-opacity:1"
         d="M 0.66145831,0 A 0.66145831,0.66145831 0 0 1 0,0.66145831 0.66145831,0.66145831 0 0 1 -0.66145831,0 0.66145831,0.66145831 0 0 1 0,-0.66145831 0.66145831,0.66145831 0 0 1 0.66145831,0 Z"
         id="path982" />
    </g>
    <g
       style="fill:#afafaf;fill-opacity:1;stroke:none;stroke-width:1.00058305;stroke-miterlimit:4;stroke-dasharray:none;stroke-opacity:1"
       transform="matrix(0.13688202,0,0,0.13688202,5.6034154,293.97321)"
       inkscape:label="Gear12"
       id="g995">
      <path
         inkscape:connector-curvature="0"
         d="m 8.33259,-1.22361 1.06349,-0.15617 0.6238,0.06064 1.75925,0.79639 v 1.0455 L 10.01988,1.31914 9.39608,1.37978 8.33259,1.22361 7.82804,3.10662 8.82714,3.50312 9.33704,3.86753 10.4624,5.43686 9.93966,6.34228 8.0179,6.15235 7.44736,5.89297 6.60443,5.22597 5.22597,6.60443 5.89297,7.44736 6.15235,8.0179 6.34228,9.93966 5.43686,10.4624 3.86753,9.33704 3.50312,8.82714 3.10662,7.82804 1.22361,8.33259 1.37978,9.39608 1.31914,10.01988 0.52275,11.77913 h -1.0455 l -0.79639,-1.75925 -0.06064,-0.6238 0.15617,-1.06349 -1.88301,-0.50455 -0.3965,0.9991 -0.36441,0.5099 -1.56933,1.12536 -0.90542,-0.52274 0.18993,-1.92176 0.25938,-0.57054 0.667,-0.84293 -1.37846,-1.37846 -0.84293,0.667 -0.57054,0.25938 -1.92176,0.18993 -0.52274,-0.90542 1.12536,-1.56933 0.5099,-0.36441 0.9991,-0.3965 -0.50455,-1.88301 -1.06349,0.15617 -0.6238,-0.06064 -1.75925,-0.79639 v -1.0455 l 1.75925,-0.79639 0.6238,-0.06064 1.06349,0.15617 0.50455,-1.88301 -0.9991,-0.3965 -0.5099,-0.36441 -1.12536,-1.56933 0.52274,-0.90542 1.92176,0.18993 0.57054,0.25938 0.84293,0.667 1.37846,-1.37846 -0.667,-0.84293 -0.25938,-0.57054 -0.18993,-1.92176 0.90542,-0.52274 1.56933,1.12536 0.36441,0.5099 0.3965,0.9991 1.88301,-0.50455 -0.15617,-1.06349 0.06064,-0.6238 0.79639,-1.75925 h 1.0455 l 0.79639,1.75925 0.06064,0.6238 -0.15617,1.06349 1.88301,0.50455 0.3965,-0.9991 0.36441,-0.5099 1.56933,-1.12536 0.90542,0.52274 -0.18993,1.92176 -0.25938,0.57054 -0.667,0.84293 1.37846,1.37846 0.84293,-0.667 0.57054,-0.25938 1.92176,-0.18993 0.52274,0.90542 -1.12536,1.56933 -0.5099,0.36441 -0.9991,0.3965 z"
         style="fill:#afafaf;fill-opacity:1;stroke:none;stroke-width:1.00058305;stroke-miterlimit:4;stroke-dasharray:none;stroke-opacity:1"
         id="path991" />
      <circle
         r="0.66145831"
         cy="0"
         cx="0"
         style="fill:#afafaf;fill-opacity:1;stroke:none;stroke-width:1.00058305;stroke-miterlimit:4;stroke-dasharray:none;stroke-opacity:1"
         id="circle993" />
    </g>
    <g
       id="g1001"
       inkscape:label="Gear12"
       transform="matrix(0.13688202,0,0,0.13688202,5.9912832,290.69986)"
       style="fill:#3d3d3d;fill-opacity:1;stroke:none;stroke-width:1.00058305;stroke-miterlimit:4;stroke-dasharray:none;stroke-opacity:1">
      <path
         id="path997"
         style="fill:#3d3d3d;fill-opacity:1;stroke:none;stroke-width:1.00058305;stroke-miterlimit:4;stroke-dasharray:none;stroke-opacity:1"
         d="m 8.33259,-1.22361 1.06349,-0.15617 0.6238,0.06064 1.75925,0.79639 v 1.0455 L 10.01988,1.31914 9.39608,1.37978 8.33259,1.22361 7.82804,3.10662 8.82714,3.50312 9.33704,3.86753 10.4624,5.43686 9.93966,6.34228 8.0179,6.15235 7.44736,5.89297 6.60443,5.22597 5.22597,6.60443 5.89297,7.44736 6.15235,8.0179 6.34228,9.93966 5.43686,10.4624 3.86753,9.33704 3.50312,8.82714 3.10662,7.82804 1.22361,8.33259 1.37978,9.39608 1.31914,10.01988 0.52275,11.77913 h -1.0455 l -0.79639,-1.75925 -0.06064,-0.6238 0.15617,-1.06349 -1.88301,-0.50455 -0.3965,0.9991 -0.36441,0.5099 -1.56933,1.12536 -0.90542,-0.52274 0.18993,-1.92176 0.25938,-0.57054 0.667,-0.84293 -1.37846,-1.37846 -0.84293,0.667 -0.57054,0.25938 -1.92176,0.18993 -0.52274,-0.90542 1.12536,-1.56933 0.5099,-0.36441 0.9991,-0.3965 -0.50455,-1.88301 -1.06349,0.15617 -0.6238,-0.06064 -1.75925,-0.79639 v -1.0455 l 1.75925,-0.79639 0.6238,-0.06064 1.06349,0.15617 0.50455,-1.88301 -0.9991,-0.3965 -0.5099,-0.36441 -1.12536,-1.56933 0.52274,-0.90542 1.92176,0.18993 0.57054,0.25938 0.84293,0.667 1.37846,-1.37846 -0.667,-0.84293 -0.25938,-0.57054 -0.18993,-1.92176 0.90542,-0.52274 1.56933,1.12536 0.36441,0.5099 0.3965,0.9991 1.88301,-0.50455 -0.15617,-1.06349 0.06064,-0.6238 0.79639,-1.75925 h 1.0455 l 0.79639,1.75925 0.06064,0.6238 -0.15617,1.06349 1.88301,0.50455 0.3965,-0.9991 0.36441,-0.5099 1.56933,-1.12536 0.90542,0.52274 -0.18993,1.92176 -0.25938,0.57054 -0.667,0.84293 1.37846,1.37846 0.84293,-0.667 0.57054,-0.25938 1.92176,-0.18993 0.52274,0.90542 -1.12536,1.56933 -0.5099,0.36441 -0.9991,0.3965 z"
         inkscape:connector-curvature="0" />
      <circle
         id="circle999"
         style="fill:#3d3d3d;fill-opacity:1;stroke:none;stroke-width:1.00058305;stroke-miterlimit:4;stroke-dasharray:none;stroke-opacity:1"
         cx="0"
         cy="0"
         r="0.66145831" />
    </g>
  </g>
</svg>
