# Blender v2.81 (sub 16) OBJ File: ''
# www.blender.org
o Plane
v -0.352636 0.000000 0.801572
v -0.352636 0.000000 1.198428
v -1.198428 0.000000 0.352636
v -0.801572 0.000000 0.352636
v -1.200000 0.000000 1.200000
v -0.800000 0.000000 1.200000
v -0.800000 0.000000 0.800000
v -1.200000 0.000000 0.800000
v 0.352636 0.000000 0.801572
v 0.352636 0.000000 1.198428
v 1.198428 0.000000 0.352636
v 0.801572 0.000000 0.352636
v 1.200000 0.000000 1.200000
v 0.800000 0.000000 1.200000
v 0.800000 0.000000 0.800000
v 1.200000 0.000000 0.800000
v -0.352636 0.000000 -0.801572
v -0.352636 0.000000 -1.198428
v -1.198428 0.000000 -0.352636
v -0.801572 0.000000 -0.352636
v -1.200000 0.000000 -1.200000
v -0.800000 0.000000 -1.200000
v -0.800000 0.000000 -0.800000
v -1.200000 0.000000 -0.800000
v 0.352636 0.000000 -0.801572
v 0.352636 0.000000 -1.198428
v 1.198428 0.000000 -0.352636
v 0.801572 0.000000 -0.352636
v 1.200000 0.000000 -1.200000
v 0.800000 0.000000 -1.200000
v 0.800000 0.000000 -0.800000
v 1.200000 0.000000 -0.800000
vt 0.000000 0.640169
vt 1.000000 0.640169
vt 1.000000 1.000000
vt 0.000000 1.000000
vt 1.000000 0.350000
vt 1.000000 0.350000
vt 1.000000 0.640169
vt 0.000000 0.350000
vt 0.000000 0.640169
vt 0.000000 1.000000
vt 1.000000 1.000000
vt 1.000000 0.640169
vt 1.000000 0.640169
vt 1.000000 0.350000
vt 1.000000 0.350000
vt 0.000000 0.350000
vt 0.000000 0.640169
vt 0.000000 1.000000
vt 1.000000 1.000000
vt 1.000000 0.640169
vt 1.000000 0.640169
vt 1.000000 0.350000
vt 1.000000 0.350000
vt 0.000000 0.350000
vt 0.000000 0.640169
vt 1.000000 0.640169
vt 1.000000 1.000000
vt 0.000000 1.000000
vt 1.000000 0.350000
vt 1.000000 0.350000
vt 1.000000 0.640169
vt 0.000000 0.350000
vn 0.0000 1.0000 0.0000
s off
f 8/1/1 7/2/1 4/3/1 3/4/1
f 7/2/1 6/5/1 2/6/1 1/7/1
f 5/8/1 6/5/1 7/2/1 8/1/1
f 16/9/1 11/10/1 12/11/1 15/12/1
f 15/12/1 9/13/1 10/14/1 14/15/1
f 13/16/1 16/9/1 15/12/1 14/15/1
f 24/17/1 19/18/1 20/19/1 23/20/1
f 23/20/1 17/21/1 18/22/1 22/23/1
f 21/24/1 24/17/1 23/20/1 22/23/1
f 32/25/1 31/26/1 28/27/1 27/28/1
f 31/26/1 30/29/1 26/30/1 25/31/1
f 29/32/1 30/29/1 31/26/1 32/25/1
