<?xml version="1.0" encoding="UTF-8" standalone="no"?>
<!-- Created with Inkscape (http://www.inkscape.org/) -->

<svg
   xmlns:dc="http://purl.org/dc/elements/1.1/"
   xmlns:cc="http://creativecommons.org/ns#"
   xmlns:rdf="http://www.w3.org/1999/02/22-rdf-syntax-ns#"
   xmlns:svg="http://www.w3.org/2000/svg"
   xmlns="http://www.w3.org/2000/svg"
   xmlns:xlink="http://www.w3.org/1999/xlink"
   xmlns:sodipodi="http://sodipodi.sourceforge.net/DTD/sodipodi-0.dtd"
   xmlns:inkscape="http://www.inkscape.org/namespaces/inkscape"
   width="32"
   height="32"
   viewBox="0 0 8.4666664 8.466667"
   version="1.1"
   id="svg8"
   inkscape:version="0.92.4 (5da689c313, 2019-01-14)"
   sodipodi:docname="open_icon.svg">
  <defs
     id="defs2">
    <linearGradient
       inkscape:collect="always"
       id="linearGradient4012">
      <stop
         style="stop-color:#592194;stop-opacity:1"
         offset="0"
         id="stop4008" />
      <stop
         style="stop-color:#ccb9e1;stop-opacity:1"
         offset="1"
         id="stop4010" />
    </linearGradient>
    <linearGradient
       inkscape:collect="always"
       xlink:href="#linearGradient4012"
       id="linearGradient4014"
       x1="21.583147"
       y1="30.422991"
       x2="2.2918525"
       y2="2.5429688"
       gradientUnits="userSpaceOnUse" />
  </defs>
  <sodipodi:namedview
     id="base"
     pagecolor="#ffffff"
     bordercolor="#666666"
     borderopacity="1.0"
     inkscape:pageopacity="0.0"
     inkscape:pageshadow="2"
     inkscape:zoom="11.2"
     inkscape:cx="12.68423"
     inkscape:cy="12.1909"
     inkscape:document-units="px"
     inkscape:current-layer="layer1"
     showgrid="false"
     units="px"
     inkscape:pagecheckerboard="true"
     inkscape:window-width="1366"
     inkscape:window-height="705"
     inkscape:window-x="-8"
     inkscape:window-y="-8"
     inkscape:window-maximized="1" />
  <metadata
     id="metadata5">
    <rdf:RDF>
      <cc:Work
         rdf:about="">
        <dc:format>image/svg+xml</dc:format>
        <dc:type
           rdf:resource="http://purl.org/dc/dcmitype/StillImage" />
        <dc:title></dc:title>
      </cc:Work>
    </rdf:RDF>
  </metadata>
  <g
     inkscape:label="Layer 1"
     inkscape:groupmode="layer"
     id="layer1"
     transform="translate(0,-288.53332)">
    <path
       style="opacity:1;fill:url(#linearGradient4014);fill-opacity:1;fill-rule:nonzero;stroke:#1c0831;stroke-width:0.99999994;stroke-linecap:square;stroke-linejoin:miter;stroke-miterlimit:4;stroke-dasharray:none;stroke-dashoffset:0;stroke-opacity:1;paint-order:normal"
       d="M 15.863281 1.9179688 C 15.393371 1.9179688 15.015625 2.5167861 15.015625 3.2597656 L 15.015625 21.236328 L 11.589844 17.355469 C 11.098082 16.798518 10.433319 16.586207 10.099609 16.880859 C 9.7658998 17.175663 9.8930037 17.862971 10.384766 18.419922 L 15.111328 23.771484 C 15.148556 23.813815 15.191494 23.83878 15.230469 23.876953 C 15.248006 24.028134 15.292729 24.163953 15.396484 24.253906 C 15.545912 24.383544 15.765072 24.39641 16.001953 24.335938 C 16.235656 24.389985 16.451884 24.374534 16.599609 24.244141 C 16.703044 24.152676 16.747888 24.016227 16.765625 23.865234 C 16.80511 23.825927 16.849037 23.798946 16.886719 23.755859 L 21.611328 18.328125 C 22.10309 17.763312 22.230192 17.076432 21.896484 16.787109 C 21.562775 16.497976 20.898012 16.720192 20.40625 17.285156 L 16.712891 21.529297 L 16.712891 3.2597656 C 16.712891 2.5167861 16.333192 1.9179688 15.863281 1.9179688 z M 1.46875 21.267578 C 1.2154619 21.267578 1.0117187 21.471305 1.0117188 21.724609 L 1.0117188 28.322266 C 1.0117188 28.403148 1.0375214 28.474874 1.0742188 28.541016 L 1.0742188 28.828125 C 1.0742188 29.081353 1.2779621 29.285156 1.53125 29.285156 L 30.353516 29.285156 C 30.606804 29.285156 30.810547 29.081467 30.810547 28.828125 L 30.810547 28.541016 C 30.847246 28.475252 30.873047 28.403525 30.873047 28.322266 L 30.873047 21.724609 C 30.873047 21.471381 30.669305 21.267578 30.416016 21.267578 L 28.804688 21.267578 C 28.551399 21.267578 28.347656 21.471305 28.347656 21.724609 L 28.347656 26.001953 L 3.5371094 26.001953 L 3.5371094 21.724609 C 3.5371094 21.471381 3.3314127 21.267578 3.078125 21.267578 L 1.46875 21.267578 z "
       transform="matrix(0.26458333,0,0,0.26458333,0,288.53332)"
       id="rect3993" />
  </g>
</svg>
